<svg xmlns="http://www.w3.org/2000/svg" width="35" height="34" viewBox="0 0 35 34">
    <g fill="none" fill-rule="evenodd">
        <path d="M-1-1h38v38H-1z"/>
        <path fill="#FFF" d="M17.6.9C8.378.9.9 8.377.9 17.602c0 7.378 4.785 13.637 11.422 15.846.836.153 1.14-.363 1.14-.806 0-.396-.014-1.446-.022-2.84-4.646 1.01-5.626-2.239-5.626-2.239-.76-1.93-1.854-2.442-1.854-2.442-1.517-1.036.114-1.016.114-1.016 1.677.119 2.558 1.721 2.558 1.721 1.49 2.552 3.908 1.815 4.86 1.389.153-1.08.583-1.816 1.061-2.233-3.708-.422-7.607-1.855-7.607-8.254 0-1.823.65-3.314 1.72-4.482-.173-.422-.746-2.12.162-4.42 0 0 1.403-.449 4.593 1.713a15.996 15.996 0 0 1 4.181-.563 16.02 16.02 0 0 1 4.18.563c3.19-2.162 4.589-1.713 4.589-1.713.911 2.3.338 3.998.166 4.42 1.07 1.168 1.717 2.659 1.717 4.482 0 6.415-3.905 7.827-7.625 8.24.6.516 1.133 1.535 1.133 3.093 0 2.232-.02 4.034-.02 4.581 0 .447.3.967 1.148.804 6.63-2.214 11.412-8.468 11.412-15.844C34.302 8.377 26.824.9 17.6.9"/>
    </g>
</svg>
