<svg xmlns="http://www.w3.org/2000/svg" width="29" height="29" viewBox="0 0 29 29">
    <g fill="none" fill-rule="evenodd">
        <path d="M-5-5h38v38H-5z"/>
        <path fill="#FFF" fill-rule="nonzero" d="M24.013.7H5.28C2.845.7.7 2.469.7 4.903v18.734c0 2.435 2.145 4.613 4.58 4.613h11.599c-.022-3.61.005-7.632-.013-11.126-.74-.008-1.48-.046-2.22-.057.003-1.235.001-2.496.002-3.73.74-.01 1.479-.011 2.218-.018.023-1.2-.022-2.41.024-3.609.074-.95.436-1.91 1.146-2.566.86-.818 2.083-1.096 3.236-1.13 1.219-.012 2.438-.006 3.658-.005.005 1.286.005 2.573 0 3.86-.789-.002-1.577 0-2.366-.002-.5-.032-1.013.347-1.103.843-.012.86-.005 1.722-.004 2.583 1.156.005 2.312-.001 3.468.003a48.248 48.248 0 0 1-.42 3.72c-1.022.01-2.044.101-3.064.107-.009 3.493.002 7.516-.007 11.127h2.58c2.434 0 4.236-2.178 4.236-4.613V4.903C28.25 2.47 26.448.7 24.013.7z"/>
    </g>
</svg>
