<svg xmlns="http://www.w3.org/2000/svg" width="35" height="35" viewBox="0 0 35 35">
    <g fill="none" fill-rule="evenodd">
        <path d="M-2-1h38v38H-2z"/>
        <g fill="#FFF" fill-rule="nonzero">
            <path d="M32.66 13.14C29.18 1.62 24.2-1.08 12.62 2.34 1.1 5.82-1.6 10.8 1.82 22.38 5.3 33.9 10.28 36.6 21.86 33.18c11.58-3.48 14.28-8.52 10.8-20.04zm-5.82 7.5l-2.16.72.78 2.28c.3.9-.18 1.92-1.08 2.22-.18.06-.42.12-.6.12-.72 0-1.38-.48-1.62-1.2l-.84-2.28-4.5 1.5.78 2.28c.3.9-.18 1.92-1.08 2.22-.18.06-.42.12-.6.12-.72 0-1.38-.48-1.62-1.2l-.78-2.28-2.16.72c-.18.06-.42.12-.6.12-.72 0-1.38-.48-1.62-1.2-.3-.9.18-1.92 1.08-2.22l2.16-.72-1.44-4.32-2.16.72c-.18.06-.42.12-.6.12-.72 0-1.38-.48-1.62-1.2-.3-.9.18-1.92 1.08-2.22l2.16-.72-.78-2.28c-.3-.9.18-1.92 1.08-2.22.9-.3 1.92.18 2.22 1.08l.78 2.28 4.5-1.5-.66-2.28c-.3-.9.18-1.92 1.08-2.22.9-.3 1.92.18 2.22 1.08l.78 2.28 2.16-.72c.9-.3 1.92.18 2.22 1.08.3.9-.18 1.92-1.08 2.22l-2.22.72 1.44 4.32 2.16-.72c.9-.3 1.92.18 2.22 1.08.3.9-.18 1.92-1.08 2.22z"/>
            <path d="M15.762 20.64l-1.448-4.323 4.494-1.506 1.448 4.324z"/>
        </g>
    </g>
</svg>
